<svg width="26" height="29" viewBox="0 0 26 29" fill="none" xmlns="http://www.w3.org/2000/svg">
<g filter="url(#filter0_d_1522_75723)">
<path d="M16.755 14.255H15.965L15.685 13.985C16.665 12.845 17.255 11.365 17.255 9.755C17.255 6.165 14.345 3.255 10.755 3.255C7.165 3.255 4.255 6.165 4.255 9.755C4.255 13.345 7.165 16.255 10.755 16.255C12.365 16.255 13.845 15.665 14.985 14.685L15.255 14.965V15.755L20.255 20.745L21.745 19.255L16.755 14.255ZM10.755 14.255C8.26501 14.255 6.255 12.245 6.255 9.755C6.255 7.26501 8.26501 5.255 10.755 5.255C13.245 5.255 15.255 7.26501 15.255 9.755C15.255 12.245 13.245 14.255 10.755 14.255Z" fill="white"/>
</g>

</svg>
